<svg width="26" height="24" viewBox="0 0 26 24" fill="none" xmlns="http://www.w3.org/2000/svg">
<path fill-rule="evenodd" clip-rule="evenodd" d="M10.9423 3.03712L11.2452 3.11533C11.7496 3.24556 12.2224 3.4702 12.6366 3.7764C13.0508 4.0826 13.3984 4.46438 13.6594 4.89994C13.9204 5.33549 14.0898 5.8163 14.1579 6.3149C14.226 6.81349 14.1914 7.32013 14.0562 7.80586L10.0858 22.067L9.78295 21.9888C9.27858 21.8586 8.80578 21.6339 8.39155 21.3277C7.97732 21.0215 7.62977 20.6398 7.36875 20.2042C7.10773 19.7686 6.93834 19.2878 6.87027 18.7892C6.80219 18.2906 6.83676 17.784 6.97199 17.2983L10.9423 3.03712ZM11.3819 3.7906L7.57775 17.4547C7.46384 17.8638 7.43473 18.2905 7.49207 18.7105C7.54941 19.1304 7.69208 19.5354 7.91193 19.9023C8.13178 20.2691 8.42451 20.5907 8.77341 20.8486C9.03911 21.045 9.33342 21.2016 9.64629 21.3135L13.4504 7.64945C13.5643 7.24032 13.5934 6.8136 13.5361 6.39364C13.4787 5.97368 13.3361 5.56871 13.1162 5.20185C12.8964 4.83499 12.6036 4.51342 12.2547 4.25551C11.989 4.05911 11.6947 3.90254 11.3819 3.7906Z" fill="black"/>
<path d="M0.928589 5.18143C2.02934 4.8972 3.20225 5.04573 4.18928 5.59435C5.17632 6.14296 5.89663 7.04672 6.19176 8.1068L10.0795 22.0712C8.97873 22.3554 7.80582 22.2069 6.81879 21.6583C5.83175 21.1097 5.11144 20.2059 4.81631 19.1458L0.928589 5.18143Z" fill="black"/>
<path fill-rule="evenodd" clip-rule="evenodd" d="M20.9279 0.857147L21.2307 0.935354C21.7351 1.06559 22.2079 1.29022 22.6221 1.59642C23.0364 1.90262 23.3839 2.2844 23.6449 2.71996C23.906 3.15551 24.0753 3.63632 24.1434 4.13492C24.2115 4.63352 24.1769 5.14015 24.0417 5.62588L20.0714 19.887L19.7685 19.8088C19.2641 19.6786 18.7913 19.454 18.3771 19.1478C17.9629 18.8416 17.6153 18.4598 17.3543 18.0242C17.0933 17.5887 16.9239 17.1079 16.8558 16.6092C16.7877 16.1106 16.8223 15.604 16.9575 15.1183L20.9279 0.857147ZM21.3674 1.61062L17.5633 15.2747C17.4494 15.6838 17.4203 16.1105 17.4776 16.5305C17.5349 16.9505 17.6776 17.3554 17.8975 17.7223C18.1173 18.0892 18.41 18.4107 18.7589 18.6687C19.0246 18.8651 19.319 19.0216 19.6318 19.1336L23.4359 5.46947C23.5498 5.06035 23.579 4.63362 23.5216 4.21366C23.4643 3.7937 23.3216 3.38873 23.1017 3.02187C22.8819 2.65501 22.5892 2.33344 22.2403 2.07554C21.9746 1.87913 21.6803 1.72257 21.3674 1.61062Z" fill="black"/>
<path d="M10.9337 3.0251C12.0344 2.74088 13.2073 2.88941 14.1943 3.43802C15.1814 3.98663 15.9017 4.89039 16.1968 5.95047L20.0845 19.9148C18.9838 20.1991 17.8109 20.0505 16.8239 19.5019C15.8368 18.9533 15.1165 18.0496 14.8214 16.9895L10.9337 3.0251Z" fill="black"/>
</svg>
