<svg width="80" height="10" viewBox="0 0 80 10" fill="none" xmlns="http://www.w3.org/2000/svg">
<path d="M80 9.88372H78.5889L76.3871 5.93023H74.5138V9.88372H73.3095V0.232559H76.521C78.4186 0.232559 79.5864 1.31783 79.5864 3.1137C79.5864 4.52197 78.8687 5.46512 77.6401 5.78812L80 9.88372ZM76.3993 1.44703H74.5138V4.71576H76.3993C77.5914 4.71576 78.3456 4.14729 78.3456 3.1137C78.3456 2.04134 77.5914 1.44703 76.3993 1.44703Z" fill="black"/>
<path d="M64.7394 5.47804V8.66925H69.3984V9.88372H63.5352V0.232559H69.2403V1.44703H64.7394V4.27649H68.9848V5.47804H64.7394Z" fill="black"/>
<path d="M58.0195 4.27649V0.232559H59.2238V9.88372H58.0195V5.47804H53.397V9.88372H52.1927V0.232559H53.397V4.27649H58.0195Z" fill="black"/>
<path d="M42.0145 0.232559H45.2624C47.2696 0.232559 48.413 1.35659 48.413 3.25581C48.413 5.15504 47.3061 6.27907 45.3719 6.27907H43.2188V9.88372H42.0145V0.232559ZM43.2188 5.07752H45.1408C46.4302 5.07752 47.1722 4.41861 47.1722 3.25581C47.1722 2.10594 46.4302 1.44703 45.1408 1.44703H43.2188V5.07752Z" fill="black"/>
<path d="M34.8835 10C33.3995 10 32.1587 9.28941 31.514 8.08786L32.4993 7.36434C33.0224 8.34625 33.8617 8.81137 34.8957 8.81137C36.0513 8.81137 36.8907 8.19121 36.8907 7.31266C36.8907 6.40827 36.246 5.99483 34.6524 5.52972C33.2657 5.11628 31.7208 4.62532 31.7208 2.7261C31.7208 1.14987 33.0345 0 34.9322 0C36.4163 0 37.4381 0.710594 38.0463 1.77003L37.0975 2.45478C36.5866 1.69251 35.808 1.18863 34.9079 1.18863C33.8131 1.18863 32.9615 1.8217 32.9615 2.64858C32.9615 3.77261 33.959 4.09561 35.1998 4.43152C36.6352 4.84496 38.1193 5.41344 38.1193 7.26098C38.1193 8.94057 36.842 10 34.8835 10Z" fill="black"/>
<path d="M27.7803 0.232559V9.88372H26.5761V0.232559H27.7803Z" fill="black"/>
<path d="M21.0604 4.27649V0.232559H22.2647V9.88372H21.0604V5.47804H16.4379V9.88372H15.2336V0.232559H16.4379V4.27649H21.0604Z" fill="black"/>
<path d="M2.51805 9.88372L0 0.232559H1.25294L3.1506 7.6615H3.22359L5.2064 0.232559H6.48367L8.50297 7.6615H8.5638L10.4615 0.232559H11.7022L9.17202 9.88372H8.00423L5.89977 2.2739H5.80246L3.68584 9.88372H2.51805Z" fill="black"/>
</svg>
